# xmcd CD database file
#
# Track frame offsets:
#	150
#	12447
#	30190
#	42660
#	95487
#	108768
#
# Disc length: 1731 seconds
#
# Revision: 0
# Processed by: cddbd v1.5.2PL0 Copyright (c) Steve Scherf et al.
# Submitted via: CDex 2.18
#
DISCID=3e06c106
DTITLE=Adrian Cox - Profoundly Blue Part 2
DYEAR=2018
DGENRE=Jazz
TTITLE0=Clarinet Marmalade
TTITLE1=Memories Of You
TTITLE2=Blue Room
TTITLE3=Ellington Medley
TTITLE4=Jazz Me Blues
TTITLE5=Lonesome Road
EXTD=YEAR: 2018
EXTT0=
EXTT1=
EXTT2=
EXTT3=
EXTT4=
EXTT5=
PLAYORDER=
